<svg xmlns="http://www.w3.org/2000/svg" width="251" height="45" viewBox="0 0 251 45">
  <path fill-rule="evenodd" d="M34.722,41.622 L34.668,16.7146514 L23.1296111,37.2713714 L20.451106,37.2713714 L8.696,16.7146514 L8.696,41.622 L2,41.622 L2,3.554 L8.778,3.554 L21.8820254,26.4812039 L34.532,3.554 L41.31,3.554 L41.364,41.622 L34.722,41.622 Z M76.93,27.366 C76.93,27.8340023 76.8940004,28.4999957 76.822,29.364 L54.196,29.364 C54.592002,31.4880106 55.6269916,33.1709938 57.301,34.413 C58.9750084,35.6550062 61.0539876,36.276 63.538,36.276 C66.7060158,36.276 69.3159897,35.2320104 71.368,33.144 L74.986,37.302 C73.6899935,38.8500077 72.0520099,40.019996 70.072,40.812 C68.0919901,41.604004 65.8600124,42 63.376,42 C60.2079842,42 57.4180121,41.3700063 55.006,40.11 C52.5939879,38.8499937 50.7310066,37.0950113 49.417,34.845 C48.1029934,32.5949888 47.446,30.0480142 47.446,27.204 C47.446,24.395986 48.0849936,21.8670113 49.363,19.617 C50.6410064,17.3669888 52.4139887,15.6120063 54.682,14.352 C56.9500113,13.0919937 59.5059858,12.462 62.35,12.462 C65.158014,12.462 67.6689889,13.0829938 69.883,14.325 C72.0970111,15.5670062 73.8249938,17.3129887 75.067,19.563 C76.3090062,21.8130113 76.93,24.4139852 76.93,27.366 Z M62.35,17.862 C60.1899892,17.862 58.3630075,18.5009936 56.869,19.779 C55.3749925,21.0570064 54.4660016,22.7579894 54.142,24.882 L70.504,24.882 C70.2159986,22.7939896 69.3340074,21.1020065 67.858,19.806 C66.3819926,18.5099935 64.546011,17.862 62.35,17.862 Z M111.418,27.366 C111.418,27.8340023 111.382,28.4999957 111.31,29.364 L88.684,29.364 C89.080002,31.4880106 90.1149916,33.1709938 91.789,34.413 C93.4630084,35.6550062 95.5419876,36.276 98.026,36.276 C101.194016,36.276 103.80399,35.2320104 105.856,33.144 L109.474,37.302 C108.177994,38.8500077 106.54001,40.019996 104.56,40.812 C102.57999,41.604004 100.348012,42 97.864,42 C94.6959842,42 91.9060121,41.3700063 89.494,40.11 C87.0819879,38.8499937 85.2190066,37.0950113 83.905,34.845 C82.5909934,32.5949888 81.934,30.0480142 81.934,27.204 C81.934,24.395986 82.5729936,21.8670113 83.851,19.617 C85.1290064,17.3669888 86.9019887,15.6120063 89.17,14.352 C91.4380113,13.0919937 93.9939858,12.462 96.838,12.462 C99.646014,12.462 102.156989,13.0829938 104.371,14.325 C106.585011,15.5670062 108.312994,17.3129887 109.555,19.563 C110.797006,21.8130113 111.418,24.4139852 111.418,27.366 Z M96.838,17.862 C94.6779892,17.862 92.8510075,18.5009936 91.357,19.779 C89.8629925,21.0570064 88.9540016,22.7579894 88.63,24.882 L104.992,24.882 C104.703999,22.7939896 103.822007,21.1020065 102.346,19.806 C100.869993,18.5099935 99.034011,17.862 96.838,17.862 Z M135.132,40.056 C134.339996,40.7040032 133.377006,41.1899984 132.243,41.514 C131.108994,41.8380016 129.912006,42 128.652,42 C125.483984,42 123.036009,41.1720083 121.308,39.516 C119.579991,37.8599917 118.716,35.4480158 118.716,32.28 L118.716,18.402 L113.964,18.402 L113.964,13.002 L118.716,13.002 L118.716,6.414 L125.466,6.414 L125.466,13.002 L133.188,13.002 L133.188,18.402 L125.466,18.402 L125.466,32.118 C125.466,33.522007 125.807997,34.5929963 126.492,35.331 C127.176003,36.0690037 128.165994,36.438 129.462,36.438 C130.974008,36.438 132.233995,36.042004 133.242,35.25 L135.132,40.056 Z M152.61,12.462 C156.858021,12.462 160.106989,13.4789898 162.357,15.513 C164.607011,17.5470102 165.732,20.6159795 165.732,24.72 L165.732,41.622 L159.36,41.622 L159.36,38.112 C158.531996,39.3720063 157.353008,40.3349967 155.823,41.001 C154.292992,41.6670033 152.448011,42 150.288,42 C148.127989,42 146.238008,41.6310037 144.618,40.893 C142.997992,40.1549963 141.747004,39.1290066 140.865,37.815 C139.982996,36.5009934 139.542,35.0160083 139.542,33.36 C139.542,30.767987 140.50499,28.6890078 142.431,27.123 C144.35701,25.5569922 147.389979,24.774 151.53,24.774 L158.982,24.774 L158.982,24.342 C158.982,22.3259899 158.379006,20.7780054 157.173,19.698 C155.966994,18.6179946 154.176012,18.078 151.8,18.078 C150.179992,18.078 148.587008,18.3299975 147.021,18.834 C145.454992,19.3380025 144.132005,20.0399955 143.052,20.94 L140.406,16.026 C141.918008,14.8739942 143.735989,13.9920031 145.86,13.38 C147.984011,12.7679969 150.233988,12.462 152.61,12.462 Z M151.692,37.086 C153.384008,37.086 154.886993,36.6990039 156.201,35.925 C157.515007,35.1509961 158.441997,34.0440072 158.982,32.604 L158.982,29.256 L152.016,29.256 C148.127981,29.256 146.184,30.5339872 146.184,33.09 C146.184,34.3140061 146.669995,35.2859964 147.642,36.006 C148.614005,36.7260036 149.963991,37.086 151.692,37.086 Z M188.256,12.462 C191.064014,12.462 193.574989,13.0739939 195.789,14.298 C198.003011,15.5220061 199.739994,17.2499888 201,19.482 C202.260006,21.7140112 202.89,24.2879854 202.89,27.204 C202.89,30.1200146 202.260006,32.7029888 201,34.953 C199.739994,37.2030113 198.003011,38.9399939 195.789,40.164 C193.574989,41.3880061 191.064014,42 188.256,42 C186.27599,42 184.467008,41.6580034 182.829,40.974 C181.190992,40.2899966 179.814006,39.2640068 178.698,37.896 L178.698,41.622 L172.272,41.622 L172.272,1.554 L179.022,1.554 L179.022,16.296 C180.174006,15.0359937 181.532992,14.0820032 183.099,13.434 C184.665008,12.7859968 186.383991,12.462 188.256,12.462 Z M187.5,36.222 C189.984012,36.222 192.026992,35.3940083 193.629,33.738 C195.231008,32.0819917 196.032,29.9040135 196.032,27.204 C196.032,24.5039865 195.231008,22.3260083 193.629,20.67 C192.026992,19.0139917 189.984012,18.186 187.5,18.186 C185.879992,18.186 184.422006,18.5549963 183.126,19.293 C181.829994,20.0310037 180.804004,21.0839932 180.048,22.452 C179.291996,23.8200068 178.914,25.403991 178.914,27.204 C178.914,29.004009 179.291996,30.5879932 180.048,31.956 C180.804004,33.3240068 181.829994,34.3769963 183.126,35.115 C184.422006,35.8530037 185.879992,36.222 187.5,36.222 Z M208.216,1.554 L214.966,1.554 L214.966,41.622 L208.216,41.622 L208.216,1.554 Z M249.83,27.366 C249.83,27.8340023 249.794,28.4999957 249.722,29.364 L227.096,29.364 C227.492002,31.4880106 228.526992,33.1709938 230.201,34.413 C231.875008,35.6550062 233.953988,36.276 236.438,36.276 C239.606016,36.276 242.21599,35.2320104 244.268,33.144 L247.886,37.302 C246.589994,38.8500077 244.95201,40.019996 242.972,40.812 C240.99199,41.604004 238.760012,42 236.276,42 C233.107984,42 230.318012,41.3700063 227.906,40.11 C225.493988,38.8499937 223.631007,37.0950113 222.317,34.845 C221.002993,32.5949888 220.346,30.0480142 220.346,27.204 C220.346,24.395986 220.984994,21.8670113 222.263,19.617 C223.541006,17.3669888 225.313989,15.6120063 227.582,14.352 C229.850011,13.0919937 232.405986,12.462 235.25,12.462 C238.058014,12.462 240.568989,13.0829938 242.783,14.325 C244.997011,15.5670062 246.724994,17.3129887 247.967,19.563 C249.209006,21.8130113 249.83,24.4139852 249.83,27.366 Z M235.25,17.862 C233.089989,17.862 231.263007,18.5009936 229.769,19.779 C228.274993,21.0570064 227.366002,22.7579894 227.042,24.882 L243.404,24.882 C243.115999,22.7939896 242.234007,21.1020065 240.758,19.806 C239.281993,18.5099935 237.446011,17.862 235.25,17.862 Z"/>
</svg>
