<svg xmlns="http://www.w3.org/2000/svg" width="251" height="44" viewBox="0 0 251 44">
  <path fill-rule="evenodd" d="M34.0078599,13.4916107 L21.0968209,32.7705377 L20.8631369,32.7705377 L8.0689399,13.6084527 L8.0689399,42.8189481 L1,42.8189481 L1,1.92425448 L8.65314981,1.92425448 L21.0968209,21.2616025 L33.5404919,1.92425448 L41.1936417,1.92425448 L41.1936417,42.8189481 L34.0078599,42.8189481 L34.0078599,13.4916107 Z M52.4981035,29.9079091 C52.9265262,32.4394981 53.9391466,34.3771082 55.535995,35.7207977 C57.1328434,37.0644872 59.0801903,37.7363219 61.3780941,37.7363219 C63.1307326,37.7363219 64.6496632,37.4247464 65.9349314,36.801586 C67.2201996,36.1784257 68.4859751,35.2631727 69.7322958,34.0557995 L73.8801861,37.7363219 C72.4001803,39.4889604 70.6378314,40.8910502 68.5930865,41.9426332 C66.5483416,42.9942163 64.1044212,43.52 61.2612521,43.52 C59.0412434,43.52 56.9673189,43.1305306 55.0394166,42.3515802 C53.1115142,41.5726297 51.4367959,40.4821155 50.0152114,39.0800047 C48.5936268,37.6778939 47.4739023,35.9934388 46.6560044,34.026589 C45.8381064,32.0597391 45.4291636,29.8689739 45.4291636,27.4542275 C45.4291636,25.2342187 45.7991595,23.1505576 46.5391624,21.2031815 C47.2791653,19.2558054 48.3209959,17.5518768 49.6646854,16.0913448 C51.0083749,14.6308127 52.5954626,13.4721413 54.4259962,12.6152958 C56.2565297,11.7584503 58.2817705,11.330034 60.5017792,11.330034 C62.9554731,11.330034 65.1072914,11.7779238 66.9572987,12.6737168 C68.807306,13.5695098 70.3457101,14.7768649 71.572557,16.2958182 C72.7994039,17.8147716 73.7243937,19.5868573 74.3475541,21.6121284 C74.9707144,23.6373996 75.2822899,25.7600077 75.2822899,27.9800164 C75.2822899,28.2915966 75.2725532,28.6031721 75.2530794,28.9147523 C75.2336057,29.2263325 75.2043955,29.5573814 75.1654479,29.9079091 L52.4981035,29.9079091 Z M52.4396825,25.2342298 L68.271771,25.2342298 C68.1549284,24.1047517 67.9017734,23.0434477 67.5122981,22.0502858 C67.1228229,21.057124 66.5970393,20.2002914 65.9349314,19.4797622 C65.2728235,18.7592331 64.484148,18.1847658 63.5688812,17.756343 C62.6536145,17.3279203 61.6117839,17.1137121 60.4433582,17.1137121 C58.262297,17.1137121 56.4610011,17.8634407 55.0394166,19.3629203 C53.617832,20.8623999 52.7512627,22.8194835 52.4396825,25.2342298 Z M86.9372776,29.9079091 C87.3657003,32.4394981 88.3783207,34.3771082 89.9751691,35.7207977 C91.5720175,37.0644872 93.5193644,37.7363219 95.8172682,37.7363219 C97.5699067,37.7363219 99.0888373,37.4247464 100.374106,36.801586 C101.659374,36.1784257 102.925149,35.2631727 104.17147,34.0557995 L108.31936,37.7363219 C106.839354,39.4889604 105.077005,40.8910502 103.032261,41.9426332 C100.987516,42.9942163 98.5435953,43.52 95.7004262,43.52 C93.4804175,43.52 91.406493,43.1305306 89.4785907,42.3515802 C87.5506884,41.5726297 85.87597,40.4821155 84.4543855,39.0800047 C83.0328009,37.6778939 81.9130765,35.9934388 81.0951785,34.026589 C80.2772805,32.0597391 79.8683377,29.8689739 79.8683377,27.4542275 C79.8683377,25.2342187 80.2383336,23.1505576 80.9783365,21.2031815 C81.7183394,19.2558054 82.76017,17.5518768 84.1038595,16.0913448 C85.447549,14.6308127 87.0346368,13.4721413 88.8651703,12.6152958 C90.6957038,11.7584503 92.7209446,11.330034 94.9409534,11.330034 C97.3946472,11.330034 99.5464656,11.7779238 101.396473,12.6737168 C103.24648,13.5695098 104.784884,14.7768649 106.011731,16.2958182 C107.238578,17.8147716 108.163568,19.5868573 108.786728,21.6121284 C109.409889,23.6373996 109.721464,25.7600077 109.721464,27.9800164 C109.721464,28.2915966 109.711727,28.6031721 109.692254,28.9147523 C109.67278,29.2263325 109.64357,29.5573814 109.604622,29.9079091 L86.9372776,29.9079091 Z M86.8788566,25.2342298 L102.710945,25.2342298 C102.594103,24.1047517 102.340947,23.0434477 101.951472,22.0502858 C101.561997,21.057124 101.036213,20.2002914 100.374106,19.4797622 C99.7119976,18.7592331 98.9233221,18.1847658 98.0080554,17.756343 C97.0927886,17.3279203 96.050958,17.1137121 94.8825324,17.1137121 C92.7014711,17.1137121 90.9001753,17.8634407 89.4785907,19.3629203 C88.0570062,20.8623999 87.1904368,22.8194835 86.8788566,25.2342298 Z M123.557502,18.048448 L123.557502,33.1794846 C123.557502,34.5426479 123.888551,35.5260581 124.550659,36.1297447 C125.212767,36.7334312 126.147493,37.03527 127.354866,37.03527 C128.87382,37.03527 130.33433,36.6847476 131.736441,35.9836922 L131.736441,41.7673703 C130.840648,42.2736881 129.886448,42.6631574 128.873812,42.9357901 C127.861177,43.2084227 126.692769,43.344737 125.368553,43.344737 C124.083285,43.344737 122.895403,43.1889493 121.804872,42.8773691 C120.714342,42.5657889 119.769878,42.0594787 118.971454,41.3584233 C118.17303,40.6573679 117.559616,39.7323782 117.131193,38.5834263 C116.70277,37.4344744 116.488562,36.0031744 116.488562,34.2894834 L116.488562,18.048448 L112.574356,18.048448 L112.574356,11.9726649 L116.488562,11.9726649 L116.488562,3.50162124 L123.557502,3.50162124 L123.557502,11.9726649 L131.853283,11.9726649 L131.853283,18.048448 L123.557502,18.048448 Z M203.477418,27.3958065 C203.477418,29.966343 203.078211,32.2447388 202.279787,34.2310624 C201.481363,36.2173861 200.410322,37.9018411 199.066633,39.2844782 C197.722943,40.6671152 196.184539,41.7089458 194.451374,42.4100012 C192.71821,43.1110566 190.936387,43.461579 189.105854,43.461579 C186.574265,43.461579 184.47113,42.9163219 182.796387,41.8257913 C181.121643,40.7352606 179.739027,39.4694852 178.648496,38.0284269 L178.648496,42.8189481 L171.579557,42.8189481 L171.579557,0.171624755 L178.648496,0.171624755 L178.648496,17.1137121 C179.777975,15.4779162 181.180064,14.1050366 182.854808,12.9950323 C184.529551,11.8850279 186.613212,11.330034 189.105854,11.330034 C190.936387,11.330034 192.708473,11.6805565 194.422164,12.3816119 C196.135855,13.0826672 197.664522,14.1244978 199.008212,15.5071349 C200.351901,16.8897719 201.432679,18.574227 202.250577,20.5605506 C203.068475,22.5468742 203.477418,24.8252701 203.477418,27.3958065 Z M196.291636,27.3958065 C196.291636,25.8768532 196.057954,24.5039736 195.590584,23.2771267 C195.123214,22.0502797 194.490326,21.0084491 193.691902,20.1516036 C192.893477,19.2947582 191.958751,18.6326602 190.887694,18.16529 C189.816637,17.6979197 188.677439,17.4642381 187.470066,17.4642381 C186.262693,17.4642381 185.113758,17.6979197 184.023228,18.16529 C182.932697,18.6326602 181.978497,19.3044949 181.160599,20.1808141 C180.342701,21.0571334 179.69034,22.098964 179.203496,23.3063371 C178.716652,24.5137103 178.473233,25.8768532 178.473233,27.3958065 C178.473233,28.9147599 178.716652,30.2779027 179.203496,31.4852759 C179.69034,32.6926491 180.342701,33.7344796 181.160599,34.6107989 C181.978497,35.4871181 182.932697,36.1589528 184.023228,36.6263231 C185.113758,37.0936933 186.262693,37.327375 187.470066,37.327375 C188.677439,37.327375 189.816637,37.0936933 190.887694,36.6263231 C191.958751,36.1589528 192.893477,35.4968549 193.691902,34.6400094 C194.490326,33.7831639 195.123214,32.7413333 195.590584,31.5144864 C196.057954,30.2876394 196.291636,28.9147599 196.291636,27.3958065 Z M134.579596,27.3958065 C134.579596,29.966343 134.978802,32.2447388 135.777226,34.2310624 C136.57565,36.2173861 137.646691,37.9018411 138.99038,39.2844782 C140.33407,40.6671152 141.872474,41.7089458 143.605639,42.4100012 C145.338803,43.1110566 147.120626,43.461579 148.951159,43.461579 C151.482748,43.461579 153.585883,42.9163219 155.260626,41.8257913 C156.93537,40.7352606 158.317986,39.4694852 159.408517,38.0284269 L159.408517,42.8189481 L166.477457,42.8189481 L166.477457,11.8558229 L159.408517,11.8558229 L159.408517,17.1137121 C158.279039,15.4779162 156.876949,14.1050366 155.202205,12.9950323 C153.527462,11.8850279 151.443801,11.330034 148.951159,11.330034 C147.120626,11.330034 145.34854,11.6805565 143.634849,12.3816119 C141.921158,13.0826672 140.392491,14.1244978 139.048801,15.5071349 C137.705112,16.8897719 136.624334,18.574227 135.806436,20.5605506 C134.988539,22.5468742 134.579596,24.8252701 134.579596,27.3958065 Z M141.473273,27.3958065 C141.473273,25.8768532 141.706954,24.5039736 142.174324,23.2771267 C142.641695,22.0502797 143.274582,21.0084491 144.073007,20.1516036 C144.871431,19.2947582 145.806157,18.6326602 146.877214,18.16529 C147.948271,17.6979197 149.087469,17.4642381 150.294842,17.4642381 C151.502215,17.4642381 152.65115,17.6979197 153.741681,18.16529 C154.832211,18.6326602 155.786411,19.3044949 156.604309,20.1808141 C157.422207,21.0571334 158.074568,22.098964 158.561412,23.3063371 C159.048256,24.5137103 159.291675,25.8768532 159.291675,27.3958065 C159.291675,28.9147599 159.048256,30.2779027 158.561412,31.4852759 C158.074568,32.6926491 157.422207,33.7344796 156.604309,34.6107989 C155.786411,35.4871181 154.832211,36.1589528 153.741681,36.6263231 C152.65115,37.0936933 151.502215,37.327375 150.294842,37.327375 C149.087469,37.327375 147.948271,37.0936933 146.877214,36.6263231 C145.806157,36.1589528 144.871431,35.4968549 144.073007,34.6400094 C143.274582,33.7831639 142.641695,32.7413333 142.174324,31.5144864 C141.706954,30.2876394 141.473273,28.9147599 141.473273,27.3958065 Z M215.405037,42.8189481 L208.336097,42.8189481 L208.336097,0.171624755 L215.405037,0.171624755 L215.405037,42.8189481 Z M227.215814,29.9079091 C227.644236,32.4394981 228.656857,34.3771082 230.253705,35.7207977 C231.850553,37.0644872 233.7979,37.7363219 236.095804,37.7363219 C237.848443,37.7363219 239.367373,37.4247464 240.652641,36.801586 C241.93791,36.1784257 243.203685,35.2631727 244.450006,34.0557995 L248.597896,37.7363219 C247.11789,39.4889604 245.355541,40.8910502 243.310797,41.9426332 C241.266052,42.9942163 238.822131,43.52 235.978962,43.52 C233.758953,43.52 231.685029,43.1305306 229.757127,42.3515802 C227.829224,41.5726297 226.154506,40.4821155 224.732921,39.0800047 C223.311337,37.6778939 222.191612,35.9934388 221.373714,34.026589 C220.555816,32.0597391 220.146874,29.8689739 220.146874,27.4542275 C220.146874,25.2342187 220.51687,23.1505576 221.256872,21.2031815 C221.996875,19.2558054 223.038706,17.5518768 224.382395,16.0913448 C225.726085,14.6308127 227.313173,13.4721413 229.143706,12.6152958 C230.97424,11.7584503 232.999481,11.330034 235.219489,11.330034 C237.673183,11.330034 239.825002,11.7779238 241.675009,12.6737168 C243.525016,13.5695098 245.06342,14.7768649 246.290267,16.2958182 C247.517114,17.8147716 248.442104,19.5868573 249.065264,21.6121284 C249.688424,23.6373996 250,25.7600077 250,27.9800164 C250,28.2915966 249.990263,28.6031721 249.97079,28.9147523 C249.951316,29.2263325 249.922106,29.5573814 249.883158,29.9079091 L227.215814,29.9079091 Z M227.157393,25.2342298 L242.989481,25.2342298 C242.872639,24.1047517 242.619483,23.0434477 242.230008,22.0502858 C241.840533,21.057124 241.314749,20.2002914 240.652641,19.4797622 C239.990534,18.7592331 239.201858,18.1847658 238.286591,17.756343 C237.371325,17.3279203 236.329494,17.1137121 235.161068,17.1137121 C232.980007,17.1137121 231.178711,17.8634407 229.757127,19.3629203 C228.335542,20.8623999 227.468973,22.8194835 227.157393,25.2342298 Z"/>
</svg>
