<?xml version="1.0" encoding="UTF-8"?>
<svg width="251px" height="44px" viewBox="0 0 251 44" version="1.1" xmlns="http://www.w3.org/2000/svg" xmlns:xlink="http://www.w3.org/1999/xlink">
    <!-- Generator: Sketch 49 (51002) - http://www.bohemiancoding.com/sketch -->
    <title>ic_meetable_wordmark</title>
    <desc>Created with Sketch.</desc>
    <defs></defs>
    <g id="Assets" stroke="none" stroke-width="1" fill="none" fill-rule="evenodd">
        <path d="M34.0078599,13.3199859 L21.0968209,32.5989129 L20.8631369,32.5989129 L8.0689399,13.4368279 L8.0689399,42.6473234 L1,42.6473234 L1,1.75262973 L8.65314981,1.75262973 L21.0968209,21.0899777 L33.5404919,1.75262973 L41.1936417,1.75262973 L41.1936417,42.6473234 L34.0078599,42.6473234 L34.0078599,13.3199859 Z M52.4981035,29.7362844 C52.9265262,32.2678733 53.9391466,34.2054835 55.535995,35.549173 C57.1328434,36.8928625 59.0801903,37.5646971 61.3780941,37.5646971 C63.1307326,37.5646971 64.6496632,37.2531216 65.9349314,36.6299613 C67.2201996,36.0068009 68.4859751,35.0915479 69.7322958,33.8841747 L73.8801861,37.5646971 C72.4001803,39.3173356 70.6378314,40.7194254 68.5930865,41.7710085 C66.5483416,42.8225916 64.1044212,43.3483752 61.2612521,43.3483752 C59.0412434,43.3483752 56.9673189,42.9589059 55.0394166,42.1799554 C53.1115142,41.401005 51.4367959,40.3104907 50.0152114,38.9083799 C48.5936268,37.5062691 47.4739023,35.8218141 46.6560044,33.8549642 C45.8381064,31.8881144 45.4291636,29.6973491 45.4291636,27.2826027 C45.4291636,25.062594 45.7991595,22.9789328 46.5391624,21.0315567 C47.2791653,19.0841806 48.3209959,17.3802521 49.6646854,15.91972 C51.0083749,14.4591879 52.5954626,13.3005165 54.4259962,12.4436711 C56.2565297,11.5868256 58.2817705,11.1584093 60.5017792,11.1584093 C62.9554731,11.1584093 65.1072914,11.606299 66.9572987,12.5020921 C68.807306,13.3978851 70.3457101,14.6052401 71.572557,16.1241935 C72.7994039,17.6431468 73.7243937,19.4152325 74.3475541,21.4405037 C74.9707144,23.4657748 75.2822899,25.5883829 75.2822899,27.8083917 C75.2822899,28.1199718 75.2725532,28.4315473 75.2530794,28.7431275 C75.2336057,29.0547077 75.2043955,29.3857567 75.1654479,29.7362844 L52.4981035,29.7362844 Z M52.4396825,25.0626051 L68.271771,25.0626051 C68.1549284,23.933127 67.9017734,22.8718229 67.5122981,21.8786611 C67.1228229,20.8854993 66.5970393,20.0286666 65.9349314,19.3081375 C65.2728235,18.5876083 64.484148,18.013141 63.5688812,17.5847183 C62.6536145,17.1562955 61.6117839,16.9420874 60.4433582,16.9420874 C58.262297,16.9420874 56.4610011,17.6918159 55.0394166,19.1912955 C53.617832,20.6907751 52.7512627,22.6478587 52.4396825,25.0626051 Z M86.9372776,29.7362844 C87.3657003,32.2678733 88.3783207,34.2054835 89.9751691,35.549173 C91.5720175,36.8928625 93.5193644,37.5646971 95.8172682,37.5646971 C97.5699067,37.5646971 99.0888373,37.2531216 100.374106,36.6299613 C101.659374,36.0068009 102.925149,35.0915479 104.17147,33.8841747 L108.31936,37.5646971 C106.839354,39.3173356 105.077005,40.7194254 103.032261,41.7710085 C100.987516,42.8225916 98.5435953,43.3483752 95.7004262,43.3483752 C93.4804175,43.3483752 91.406493,42.9589059 89.4785907,42.1799554 C87.5506884,41.401005 85.87597,40.3104907 84.4543855,38.9083799 C83.0328009,37.5062691 81.9130765,35.8218141 81.0951785,33.8549642 C80.2772805,31.8881144 79.8683377,29.6973491 79.8683377,27.2826027 C79.8683377,25.062594 80.2383336,22.9789328 80.9783365,21.0315567 C81.7183394,19.0841806 82.76017,17.3802521 84.1038595,15.91972 C85.447549,14.4591879 87.0346368,13.3005165 88.8651703,12.4436711 C90.6957038,11.5868256 92.7209446,11.1584093 94.9409534,11.1584093 C97.3946472,11.1584093 99.5464656,11.606299 101.396473,12.5020921 C103.24648,13.3978851 104.784884,14.6052401 106.011731,16.1241935 C107.238578,17.6431468 108.163568,19.4152325 108.786728,21.4405037 C109.409889,23.4657748 109.721464,25.5883829 109.721464,27.8083917 C109.721464,28.1199718 109.711727,28.4315473 109.692254,28.7431275 C109.67278,29.0547077 109.64357,29.3857567 109.604622,29.7362844 L86.9372776,29.7362844 Z M86.8788566,25.0626051 L102.710945,25.0626051 C102.594103,23.933127 102.340947,22.8718229 101.951472,21.8786611 C101.561997,20.8854993 101.036213,20.0286666 100.374106,19.3081375 C99.7119976,18.5876083 98.9233221,18.013141 98.0080554,17.5847183 C97.0927886,17.1562955 96.050958,16.9420874 94.8825324,16.9420874 C92.7014711,16.9420874 90.9001753,17.6918159 89.4785907,19.1912955 C88.0570062,20.6907751 87.1904368,22.6478587 86.8788566,25.0626051 Z M123.557502,17.8768232 L123.557502,33.0078599 C123.557502,34.3710231 123.888551,35.3544333 124.550659,35.9581199 C125.212767,36.5618065 126.147493,36.8636453 127.354866,36.8636453 C128.87382,36.8636453 130.33433,36.5131228 131.736441,35.8120674 L131.736441,41.5957455 C130.840648,42.1020633 129.886448,42.4915327 128.873812,42.7641653 C127.861177,43.036798 126.692769,43.1731123 125.368553,43.1731123 C124.083285,43.1731123 122.895403,43.0173245 121.804872,42.7057443 C120.714342,42.3941642 119.769878,41.887854 118.971454,41.1867986 C118.17303,40.4857432 117.559616,39.5607534 117.131193,38.4118015 C116.70277,37.2628496 116.488562,35.8315497 116.488562,34.1178587 L116.488562,17.8768232 L112.574356,17.8768232 L112.574356,11.8010402 L116.488562,11.8010402 L116.488562,3.32999648 L123.557502,3.32999648 L123.557502,11.8010402 L131.853283,11.8010402 L131.853283,17.8768232 L123.557502,17.8768232 Z M203.477418,27.2241818 C203.477418,29.7947182 203.078211,32.0731141 202.279787,34.0594377 C201.481363,36.0457613 200.410322,37.7302164 199.066633,39.1128534 C197.722943,40.4954904 196.184539,41.537321 194.451374,42.2383764 C192.71821,42.9394318 190.936387,43.2899543 189.105854,43.2899543 C186.574265,43.2899543 184.47113,42.7446971 182.796387,41.6541665 C181.121643,40.5636359 179.739027,39.2978604 178.648496,37.8568021 L178.648496,42.6473234 L171.579557,42.6473234 L171.579557,0 L178.648496,0 L178.648496,16.9420874 C179.777975,15.3062914 181.180064,13.9334119 182.854808,12.8234075 C184.529551,11.7134031 186.613212,11.1584093 189.105854,11.1584093 C190.936387,11.1584093 192.708473,11.5089317 194.422164,12.2099871 C196.135855,12.9110425 197.664522,13.9528731 199.008212,15.3355101 C200.351901,16.7181471 201.432679,18.4026022 202.250577,20.3889258 C203.068475,22.3752494 203.477418,24.6536453 203.477418,27.2241818 Z M196.291636,27.2241818 C196.291636,25.7052284 196.057954,24.3323488 195.590584,23.1055019 C195.123214,21.878655 194.490326,20.8368244 193.691902,19.9799789 C192.893477,19.1231334 191.958751,18.4610355 190.887694,17.9936652 C189.816637,17.5262949 188.677439,17.2926133 187.470066,17.2926133 C186.262693,17.2926133 185.113758,17.5262949 184.023228,17.9936652 C182.932697,18.4610355 181.978497,19.1328701 181.160599,20.0091894 C180.342701,20.8855086 179.69034,21.9273392 179.203496,23.1347124 C178.716652,24.3420856 178.473233,25.7052284 178.473233,27.2241818 C178.473233,28.7431351 178.716652,30.1062779 179.203496,31.3136511 C179.69034,32.5210243 180.342701,33.5628549 181.160599,34.4391741 C181.978497,35.3154934 182.932697,35.9873281 184.023228,36.4546983 C185.113758,36.9220686 186.262693,37.1557502 187.470066,37.1557502 C188.677439,37.1557502 189.816637,36.9220686 190.887694,36.4546983 C191.958751,35.9873281 192.893477,35.3252301 193.691902,34.4683846 C194.490326,33.6115391 195.123214,32.5697086 195.590584,31.3428616 C196.057954,30.1160147 196.291636,28.7431351 196.291636,27.2241818 Z M134.579596,27.2241818 C134.579596,29.7947182 134.978802,32.0731141 135.777226,34.0594377 C136.57565,36.0457613 137.646691,37.7302164 138.99038,39.1128534 C140.33407,40.4954904 141.872474,41.537321 143.605639,42.2383764 C145.338803,42.9394318 147.120626,43.2899543 148.951159,43.2899543 C151.482748,43.2899543 153.585883,42.7446971 155.260626,41.6541665 C156.93537,40.5636359 158.317986,39.2978604 159.408517,37.8568021 L159.408517,42.6473234 L166.477457,42.6473234 L166.477457,11.6841982 L159.408517,11.6841982 L159.408517,16.9420874 C158.279039,15.3062914 156.876949,13.9334119 155.202205,12.8234075 C153.527462,11.7134031 151.443801,11.1584093 148.951159,11.1584093 C147.120626,11.1584093 145.34854,11.5089317 143.634849,12.2099871 C141.921158,12.9110425 140.392491,13.9528731 139.048801,15.3355101 C137.705112,16.7181471 136.624334,18.4026022 135.806436,20.3889258 C134.988539,22.3752494 134.579596,24.6536453 134.579596,27.2241818 Z M141.473273,27.2241818 C141.473273,25.7052284 141.706954,24.3323488 142.174324,23.1055019 C142.641695,21.878655 143.274582,20.8368244 144.073007,19.9799789 C144.871431,19.1231334 145.806157,18.4610355 146.877214,17.9936652 C147.948271,17.5262949 149.087469,17.2926133 150.294842,17.2926133 C151.502215,17.2926133 152.65115,17.5262949 153.741681,17.9936652 C154.832211,18.4610355 155.786411,19.1328701 156.604309,20.0091894 C157.422207,20.8855086 158.074568,21.9273392 158.561412,23.1347124 C159.048256,24.3420856 159.291675,25.7052284 159.291675,27.2241818 C159.291675,28.7431351 159.048256,30.1062779 158.561412,31.3136511 C158.074568,32.5210243 157.422207,33.5628549 156.604309,34.4391741 C155.786411,35.3154934 154.832211,35.9873281 153.741681,36.4546983 C152.65115,36.9220686 151.502215,37.1557502 150.294842,37.1557502 C149.087469,37.1557502 147.948271,36.9220686 146.877214,36.4546983 C145.806157,35.9873281 144.871431,35.3252301 144.073007,34.4683846 C143.274582,33.6115391 142.641695,32.5697086 142.174324,31.3428616 C141.706954,30.1160147 141.473273,28.7431351 141.473273,27.2241818 Z M215.405037,42.6473234 L208.336097,42.6473234 L208.336097,0 L215.405037,0 L215.405037,42.6473234 Z M227.215814,29.7362844 C227.644236,32.2678733 228.656857,34.2054835 230.253705,35.549173 C231.850553,36.8928625 233.7979,37.5646971 236.095804,37.5646971 C237.848443,37.5646971 239.367373,37.2531216 240.652641,36.6299613 C241.93791,36.0068009 243.203685,35.0915479 244.450006,33.8841747 L248.597896,37.5646971 C247.11789,39.3173356 245.355541,40.7194254 243.310797,41.7710085 C241.266052,42.8225916 238.822131,43.3483752 235.978962,43.3483752 C233.758953,43.3483752 231.685029,42.9589059 229.757127,42.1799554 C227.829224,41.401005 226.154506,40.3104907 224.732921,38.9083799 C223.311337,37.5062691 222.191612,35.8218141 221.373714,33.8549642 C220.555816,31.8881144 220.146874,29.6973491 220.146874,27.2826027 C220.146874,25.062594 220.51687,22.9789328 221.256872,21.0315567 C221.996875,19.0841806 223.038706,17.3802521 224.382395,15.91972 C225.726085,14.4591879 227.313173,13.3005165 229.143706,12.4436711 C230.97424,11.5868256 232.999481,11.1584093 235.219489,11.1584093 C237.673183,11.1584093 239.825002,11.606299 241.675009,12.5020921 C243.525016,13.3978851 245.06342,14.6052401 246.290267,16.1241935 C247.517114,17.6431468 248.442104,19.4152325 249.065264,21.4405037 C249.688424,23.4657748 250,25.5883829 250,27.8083917 C250,28.1199718 249.990263,28.4315473 249.97079,28.7431275 C249.951316,29.0547077 249.922106,29.3857567 249.883158,29.7362844 L227.215814,29.7362844 Z M227.157393,25.0626051 L242.989481,25.0626051 C242.872639,23.933127 242.619483,22.8718229 242.230008,21.8786611 C241.840533,20.8854993 241.314749,20.0286666 240.652641,19.3081375 C239.990534,18.5876083 239.201858,18.013141 238.286591,17.5847183 C237.371325,17.1562955 236.329494,16.9420874 235.161068,16.9420874 C232.980007,16.9420874 231.178711,17.6918159 229.757127,19.1912955 C228.335542,20.6907751 227.468973,22.6478587 227.157393,25.0626051 Z" id="Meetable" fill="#FFFFFF"></path>
    </g>
</svg>