<svg xmlns="http://www.w3.org/2000/svg" width="44" height="52" viewBox="0 0 44 52">
  <path fill-rule="evenodd" d="M5,0 L39,-3.55271368e-15 C41.7614237,-4.05997899e-15 44,2.23857625 44,5 L44,39 C44,41.7614237 41.7614237,44 39,44 L10.0509476,44 L3.01417396,51.3511599 C2.34584913,52.0493439 1.23807484,52.0735495 0.539890837,51.4052247 C0.195030069,51.0751126 5.8021198e-13,50.6184426 5.74429393e-13,50.1410507 L0,5 C-3.22224576e-14,2.23857625 2.23857625,-2.53400512e-14 5,-5.77315973e-14 Z M33.5,34 C33.7761424,34 34,33.7761424 34,33.5 L34,10.5 C34,10.2238576 33.7761424,10 33.5,10 L28.5864909,10 C28.4136632,10 28.2530899,10.0892529 28.1618483,10.2360329 L22,20.1485714 L15.8381517,10.2360329 C15.7469101,10.0892529 15.5863368,10 15.4135091,10 L10.5,10 C10.2238576,10 10,10.2238576 10,10.5 L10,33.5 C10,33.7761424 10.2238576,34 10.5,34 L14.6771429,34 C14.9532852,34 15.1771429,33.7761424 15.1771429,33.5 L15.1771429,18.4342857 L21.8855285,28.525752 C21.90924,28.5614214 21.9492294,28.5828571 21.992061,28.5828571 C22.0348421,28.5828571 22.0747326,28.5612625 22.098122,28.5254413 L28.7542857,18.3314286 L28.7542857,33.5 C28.7542857,33.7761424 28.9781433,34 29.2542857,34 L33.5,34 Z"/>
</svg>
