<svg xmlns="http://www.w3.org/2000/svg" width="255" height="45" viewBox="0 0 255 45">
  <path fill-rule="evenodd" d="M33.9,13.68 L20.64,33.48 L20.4,33.48 L7.26,13.8 L7.26,43.8 L0,43.8 L0,1.8 L7.86,1.8 L20.64,21.66 L33.42,1.8 L41.28,1.8 L41.28,43.8 L33.9,43.8 L33.9,13.68 Z M52.89,30.54 C53.3300022,33.140013 54.3699918,35.1299931 56.01,36.51 C57.6500082,37.8900069 59.6499882,38.58 62.01,38.58 C63.810009,38.58 65.3699934,38.2600032 66.69,37.62 C68.0100066,36.9799968 69.3099936,36.0400062 70.59,34.8 L74.85,38.58 C73.3299924,40.380009 71.5200105,41.8199946 69.42,42.9 C67.3199895,43.9800054 64.8100146,44.52 61.89,44.52 C59.6099886,44.52 57.4800099,44.120004 55.5,43.32 C53.5199901,42.519996 51.8000073,41.4000072 50.34,39.96 C48.8799927,38.5199928 47.7300042,36.7900101 46.89,34.77 C46.0499958,32.7499899 45.63,30.5000124 45.63,28.02 C45.63,25.7399886 46.0099962,23.60001 46.77,21.6 C47.5300038,19.59999 48.5999931,17.8500075 49.98,16.35 C51.3600069,14.8499925 52.9899906,13.6600044 54.87,12.78 C56.7500094,11.8999956 58.8299886,11.46 61.11,11.46 C63.6300126,11.46 65.8399905,11.9199954 67.74,12.84 C69.6400095,13.7600046 71.2199937,14.9999922 72.48,16.56 C73.7400063,18.1200078 74.6899968,19.9399896 75.33,22.02 C75.9700032,24.1000104 76.29,26.2799886 76.29,28.56 C76.29,28.8800016 76.2800001,29.1999984 76.26,29.52 C76.2399999,29.8400016 76.2100002,30.1799982 76.17,30.54 L52.89,30.54 Z M52.83,25.74 L69.09,25.74 C68.9699994,24.5799942 68.710002,23.4900051 68.31,22.47 C67.909998,21.4499949 67.3700034,20.5700037 66.69,19.83 C66.0099966,19.0899963 65.2000047,18.5000022 64.26,18.06 C63.3199953,17.6199978 62.250006,17.4 61.05,17.4 C58.8099888,17.4 56.9600073,18.1699923 55.5,19.71 C54.0399927,21.2500077 53.1500016,23.2599876 52.83,25.74 Z M88.26,30.54 C88.7000022,33.140013 89.7399918,35.1299931 91.38,36.51 C93.0200082,37.8900069 95.0199882,38.58 97.38,38.58 C99.180009,38.58 100.739993,38.2600032 102.06,37.62 C103.380007,36.9799968 104.679994,36.0400062 105.96,34.8 L110.22,38.58 C108.699992,40.380009 106.89001,41.8199946 104.79,42.9 C102.689989,43.9800054 100.180015,44.52 97.26,44.52 C94.9799886,44.52 92.8500099,44.120004 90.87,43.32 C88.8899901,42.519996 87.1700073,41.4000072 85.71,39.96 C84.2499927,38.5199928 83.1000042,36.7900101 82.26,34.77 C81.4199958,32.7499899 81,30.5000124 81,28.02 C81,25.7399886 81.3799962,23.60001 82.14,21.6 C82.9000038,19.59999 83.9699931,17.8500075 85.35,16.35 C86.7300069,14.8499925 88.3599906,13.6600044 90.24,12.78 C92.1200094,11.8999956 94.1999886,11.46 96.48,11.46 C99.0000126,11.46 101.20999,11.9199954 103.11,12.84 C105.010009,13.7600046 106.589994,14.9999922 107.85,16.56 C109.110006,18.1200078 110.059997,19.9399896 110.7,22.02 C111.340003,24.1000104 111.66,26.2799886 111.66,28.56 C111.66,28.8800016 111.65,29.1999984 111.63,29.52 C111.61,29.8400016 111.58,30.1799982 111.54,30.54 L88.26,30.54 Z M88.2,25.74 L104.46,25.74 C104.339999,24.5799942 104.080002,23.4900051 103.68,22.47 C103.279998,21.4499949 102.740003,20.5700037 102.06,19.83 C101.379997,19.0899963 100.570005,18.5000022 99.63,18.06 C98.6899953,17.6199978 97.620006,17.4 96.42,17.4 C94.1799888,17.4 92.3300073,18.1699923 90.87,19.71 C89.4099927,21.2500077 88.5200016,23.2599876 88.2,25.74 Z M125.87,18.36 L125.87,33.9 C125.87,35.300007 126.209997,36.3099969 126.89,36.93 C127.570003,37.5500031 128.529994,37.86 129.77,37.86 C131.330008,37.86 132.829993,37.5000036 134.27,36.78 L134.27,42.72 C133.349995,43.2400026 132.370005,43.6399986 131.33,43.92 C130.289995,44.2000014 129.090007,44.34 127.73,44.34 C126.409993,44.34 125.190006,44.1800016 124.07,43.86 C122.949994,43.5399984 121.980004,43.0200036 121.16,42.3 C120.339996,41.5799964 119.710002,40.6300059 119.27,39.45 C118.829998,38.2699941 118.61,36.8000088 118.61,35.04 L118.61,18.36 L114.59,18.36 L114.59,12.12 L118.61,12.12 L118.61,3.42 L125.87,3.42 L125.87,12.12 L134.39,12.12 L134.39,18.36 L125.87,18.36 Z M167.42,43.8 L160.22,43.8 L160.22,39.9 C159.139995,41.1800064 157.760008,42.2599956 156.08,43.14 C154.399992,44.0200044 152.360012,44.46 149.96,44.46 C148.439992,44.46 147.000007,44.2500021 145.64,43.83 C144.279993,43.4099979 143.090005,42.7900041 142.07,41.97 C141.049995,41.1499959 140.230003,40.1300061 139.61,38.91 C138.989997,37.6899939 138.68,36.280008 138.68,34.68 L138.68,34.56 C138.68,32.8399914 138.999997,31.3400064 139.64,30.06 C140.280003,28.7799936 141.169994,27.7200042 142.31,26.88 C143.450006,26.0399958 144.809992,25.4100021 146.39,24.99 C147.970008,24.5699979 149.679991,24.36 151.52,24.36 C153.44001,24.36 155.069993,24.4799988 156.41,24.72 C157.750007,24.9600012 159.039994,25.279998 160.28,25.68 L160.28,24.9 C160.28,22.699989 159.610007,21.0200058 158.27,19.86 C156.929993,18.6999942 155.000013,18.12 152.48,18.12 C150.679991,18.12 149.080007,18.2999982 147.68,18.66 C146.279993,19.0200018 144.860007,19.499997 143.42,20.1 L141.44,14.28 C143.200009,13.479996 144.999991,12.8400024 146.84,12.36 C148.680009,11.8799976 150.899987,11.64 153.5,11.64 C158.220024,11.64 161.719989,12.8099883 164,15.15 C166.280011,17.4900117 167.42,20.7799788 167.42,25.02 L167.42,43.8 Z M160.4,32.34 L160.4,30.36 C159.479995,29.9999982 158.390006,29.7000012 157.13,29.46 C155.869994,29.2199988 154.540007,29.1 153.14,29.1 C150.859989,29.1 149.080006,29.5399956 147.8,30.42 C146.519994,31.3000044 145.88,32.5599918 145.88,34.2 L145.88,34.32 C145.88,35.8400076 146.469994,36.999996 147.65,37.8 C148.830006,38.600004 150.279991,39 152,39 C153.200006,39 154.309995,38.8400016 155.33,38.52 C156.350005,38.1999984 157.239996,37.7500029 158,37.17 C158.760004,36.5899971 159.349998,35.8900041 159.77,35.07 C160.190002,34.2499959 160.4,33.340005 160.4,32.34 Z M205.95,27.96 C205.95,30.6000132 205.540004,32.9399898 204.72,34.98 C203.899996,37.0200102 202.800007,38.7499929 201.42,40.17 C200.039993,41.5900071 198.460009,42.6599964 196.68,43.38 C194.899991,44.1000036 193.070009,44.46 191.19,44.46 C188.589987,44.46 186.430009,43.9000056 184.71,42.78 C182.989991,41.6599944 181.570006,40.3600074 180.45,38.88 L180.45,43.8 L173.19,43.8 L173.19,0 L180.45,0 L180.45,17.4 C181.610006,15.7199916 183.049991,14.3100057 184.77,13.17 C186.490009,12.0299943 188.629987,11.46 191.19,11.46 C193.070009,11.46 194.889991,11.8199964 196.65,12.54 C198.410009,13.2600036 199.979993,14.3299929 201.36,15.75 C202.740007,17.1700071 203.849996,18.8999898 204.69,20.94 C205.530004,22.9800102 205.95,25.3199868 205.95,27.96 Z M198.57,27.96 C198.57,26.3999922 198.330002,24.9900063 197.85,23.73 C197.369998,22.4699937 196.720004,21.4000044 195.9,20.52 C195.079996,19.6399956 194.120005,18.9600024 193.02,18.48 C191.919994,17.9999976 190.750006,17.76 189.51,17.76 C188.269994,17.76 187.090006,17.9999976 185.97,18.48 C184.849994,18.9600024 183.870004,19.6499955 183.03,20.55 C182.189996,21.4500045 181.520002,22.5199938 181.02,23.76 C180.519997,25.0000062 180.27,26.3999922 180.27,27.96 C180.27,29.5200078 180.519997,30.9199938 181.02,32.16 C181.520002,33.4000062 182.189996,34.4699955 183.03,35.37 C183.870004,36.2700045 184.849994,36.9599976 185.97,37.44 C187.090006,37.9200024 188.269994,38.16 189.51,38.16 C190.750006,38.16 191.919994,37.9200024 193.02,37.44 C194.120005,36.9599976 195.079996,36.2800044 195.9,35.4 C196.720004,34.5199956 197.369998,33.4500063 197.85,32.19 C198.330002,30.9299937 198.57,29.5200078 198.57,27.96 Z M218.2,43.8 L210.94,43.8 L210.94,0 L218.2,0 L218.2,43.8 Z M230.33,30.54 C230.770002,33.140013 231.809992,35.1299931 233.45,36.51 C235.090008,37.8900069 237.089988,38.58 239.45,38.58 C241.250009,38.58 242.809993,38.2600032 244.13,37.62 C245.450007,36.9799968 246.749994,36.0400062 248.03,34.8 L252.29,38.58 C250.769992,40.380009 248.96001,41.8199946 246.86,42.9 C244.759989,43.9800054 242.250015,44.52 239.33,44.52 C237.049989,44.52 234.92001,44.120004 232.94,43.32 C230.95999,42.519996 229.240007,41.4000072 227.78,39.96 C226.319993,38.5199928 225.170004,36.7900101 224.33,34.77 C223.489996,32.7499899 223.07,30.5000124 223.07,28.02 C223.07,25.7399886 223.449996,23.60001 224.21,21.6 C224.970004,19.59999 226.039993,17.8500075 227.42,16.35 C228.800007,14.8499925 230.429991,13.6600044 232.31,12.78 C234.190009,11.8999956 236.269989,11.46 238.55,11.46 C241.070013,11.46 243.27999,11.9199954 245.18,12.84 C247.080009,13.7600046 248.659994,14.9999922 249.92,16.56 C251.180006,18.1200078 252.129997,19.9399896 252.77,22.02 C253.410003,24.1000104 253.73,26.2799886 253.73,28.56 C253.73,28.8800016 253.72,29.1999984 253.7,29.52 C253.68,29.8400016 253.65,30.1799982 253.61,30.54 L230.33,30.54 Z M230.27,25.74 L246.53,25.74 C246.409999,24.5799942 246.150002,23.4900051 245.75,22.47 C245.349998,21.4499949 244.810003,20.5700037 244.13,19.83 C243.449997,19.0899963 242.640005,18.5000022 241.7,18.06 C240.759995,17.6199978 239.690006,17.4 238.49,17.4 C236.249989,17.4 234.400007,18.1699923 232.94,19.71 C231.479993,21.2500077 230.590002,23.2599876 230.27,25.74 Z"/>
</svg>
