<?xml version="1.0" encoding="UTF-8"?>
<svg width="44px" height="52px" viewBox="0 0 44 52" version="1.1" xmlns="http://www.w3.org/2000/svg" xmlns:xlink="http://www.w3.org/1999/xlink">
    <!-- Generator: Sketch 48.2 (47327) - http://www.bohemiancoding.com/sketch -->
    <title>ic_meetable_icon</title>
    <desc>Created with Sketch.</desc>
    <defs></defs>
    <g id="Assets" stroke="none" stroke-width="1" fill="none" fill-rule="evenodd">
        <path d="M5,0 L39,-5.32907052e-15 C41.7614237,-5.83633583e-15 44,2.23857625 44,5 L44,39 C44,41.7614237 41.7614237,44 39,44 L10.0509476,44 L3.01417396,51.3511599 C2.34584913,52.0493439 1.23807484,52.0735495 0.539890837,51.4052247 C0.195030069,51.0751126 5.96199191e-13,50.6184426 5.90416604e-13,50.1410507 L0,5 C-3.22224576e-14,2.23857625 2.23857625,-2.53400512e-14 5,-5.77315973e-14 Z" id="Combined-Shape" fill="#000000"></path>
        <path d="M33.5,34 L29.2542857,34 C28.9781433,34 28.7542857,33.7761424 28.7542857,33.5 L28.7542857,18.3314286 L22.098122,28.5254413 C22.0747326,28.5612625 22.0348421,28.5828571 21.992061,28.5828571 L21.992061,28.5828571 C21.9492294,28.5828571 21.90924,28.5614214 21.8855285,28.525752 L15.1771429,18.4342857 L15.1771429,33.5 C15.1771429,33.7761424 14.9532852,34 14.6771429,34 L10.5,34 C10.2238576,34 10,33.7761424 10,33.5 L10,10.5 C10,10.2238576 10.2238576,10 10.5,10 L15.4135091,10 C15.5863368,10 15.7469101,10.0892529 15.8381517,10.2360329 L22,20.1485714 L28.1618483,10.2360329 C28.2530899,10.0892529 28.4136632,10 28.5864909,10 L33.5,10 C33.7761424,10 34,10.2238576 34,10.5 L34,33.5 C34,33.7761424 33.7761424,34 33.5,34 Z" id="M" fill="#FFFFFF"></path>
    </g>
</svg>